<?xml version="1.0" encoding="utf-8"?>
<!-- Generator: Adobe Illustrator 27.5.0, SVG Export Plug-In . SVG Version: 6.00 Build 0)  -->
<svg version="1.1" xmlns="http://www.w3.org/2000/svg" xmlns:xlink="http://www.w3.org/1999/xlink" x="0px" y="0px"
	 viewBox="0 0 750 500" style="enable-background:new 0 0 750 500;" xml:space="preserve">
<g id="BACKGROUND">
	<rect style="fill:#FFFFFF;" width="750" height="500"/>
</g>
<g id="OBJECTS">
	<g>
		<g>
			<path style="fill:#92AEEC;" d="M588.37,93.705h2.241c5.579,0,10.103-4.523,10.103-10.103c0-5.579-4.523-10.103-10.103-10.103
				h-2.241c-5.579,0-10.102,4.523-10.102,10.103C578.268,89.182,582.791,93.705,588.37,93.705z"/>
			<path style="fill:#92AEEC;" d="M597.46,130.8h31.59c2.89,0,5.5-1.17,7.39-3.06c1.89-1.89,3.06-4.5,3.06-7.39
				c0-5.77-4.68-10.45-10.45-10.45H525.31c-2.23,0-4.26-0.91-5.72-2.37c-1.47-1.47-2.37-3.49-2.37-5.73c0-4.47,3.62-8.1,8.09-8.1
				h33.27c2.79,0,5.32-1.13,7.14-2.96c1.83-1.82,2.96-4.35,2.96-7.14c0-5.58-4.52-10.1-10.1-10.1h-46.23
				C470.6,54.11,424.06,43.29,375,43.29c-108.9,0-205.36,53.31-264.67,135.27H55.15c-3.11,0-5.91,1.26-7.95,3.29
				c-2.03,2.03-3.29,4.85-3.29,7.95c0,6.22,5.03,11.25,11.24,11.25h40.27h19.31h7c3.88,0,7.02,3.15,7.02,7.02
				c0,1.94-0.79,3.69-2.05,4.97c-1.28,1.26-3.03,2.05-4.97,2.05h-11.3H87.4h-9.36c-1.7,0-3.25,0.69-4.37,1.81
				c-1.12,1.12-1.81,2.67-1.81,4.38c0,3.41,2.77,6.18,6.18,6.18h3.03c-20.88,43.02-32.59,91.31-32.59,142.34
				c0,10.96,0.54,21.79,1.6,32.47l649.89-0.52c1.03-10.51,1.55-21.17,1.55-31.95C701.52,275.43,661.48,190.41,597.46,130.8z"/>
		</g>
		<path style="fill:#5C82C6;" d="M704,415c-1.86,0.69-3.82,1.4-5.89,2.11c-45.75,15.75-143.21,34.66-320.84,9.77
			c0,0-173.18,36.99-325.31-9.31c-2.01-0.61-4.01-1.23-6-1.87c-8.63-2.77-6.32-13.43,2.92-13.43h1.2l649.89-0.52h0.6
			C709.53,401.74,712.18,411.95,704,415z"/>
	</g>
	<g>
		<g>
			<g>
				<path style="fill:#B7CAE5;" d="M492.199,170.605v165.05c0,10.81-8.75,19.56-19.56,19.56h-308.25c-10.8,0-19.57-8.75-19.57-19.56
					v-165.05c0-10.82,8.77-19.57,19.57-19.57h308.25C483.449,151.035,492.199,159.785,492.199,170.605z"/>
			</g>
			<g>
				<path style="fill:#D5E2F7;" d="M492.199,170.605v148.63c0,10.81-8.75,19.56-19.56,19.56h-308.25c-10.8,0-19.57-8.75-19.57-19.56
					v-148.63c0-10.82,8.77-19.57,19.57-19.57h308.25C483.449,151.035,492.199,159.785,492.199,170.605z"/>
			</g>
		</g>
		<g>
			<g>
				<path style="fill:#12184F;" d="M491.819,170.605v150.03h-347.38v-150.03c0-10.82,8.77-19.57,19.57-19.57h308.25
					C483.069,151.035,491.819,159.785,491.819,170.605z"/>
			</g>
			<g>
				<path style="fill:#12184F;" d="M491.819,170.605v83.16c0,17.4-14.1,31.5-31.5,31.5h-284.38c-13.2,0-24.49-8.11-29.17-19.62
					c-1.51-3.66-2.33-7.68-2.33-11.88v-83.16c0-10.82,8.77-19.57,19.57-19.57h308.25
					C483.069,151.035,491.819,159.785,491.819,170.605z"/>
			</g>
		</g>
		<g>
			<path style="fill:#B7CAE5;" d="M388.849,388.585v7.07c0,3.37-2.73,6.09-6.09,6.09h-128.5c-3.36,0-6.09-2.72-6.09-6.09v-7.07
				c0-0.11,0-0.21,0.02-0.32c0.15-3.22,2.82-5.77,6.07-5.77h128.5c3.25,0,5.92,2.55,6.07,5.77
				C388.849,388.375,388.849,388.475,388.849,388.585z"/>
			<path style="fill:#D5E2F7;" d="M388.829,388.265c-0.16,3.21-2.82,5.77-6.07,5.77h-128.5c-3.25,0-5.91-2.56-6.07-5.77
				c0.15-3.22,2.82-5.77,6.07-5.77h128.5C386.009,382.495,388.679,385.045,388.829,388.265z"/>
		</g>
		<g>
			<path style="fill:#B7CAE5;" d="M470.459,188.925v96.41c0,6.45-5.24,11.69-11.69,11.69h-280.52c-6.45,0-11.69-5.24-11.69-11.69
				v-96.41c0-6.46,5.24-11.69,11.69-11.69h280.52C465.219,177.235,470.459,182.465,470.459,188.925z"/>
			<g>
				<path style="fill:#D5E2F7;" d="M470.459,188.925v94.79c-3.07,1.01-6.35,1.55-9.76,1.55h-284.38c-3.41,0-6.69-0.54-9.76-1.55
					v-94.79c0-6.46,5.24-11.69,11.69-11.69h280.52C465.219,177.235,470.459,182.465,470.459,188.925z"/>
			</g>
		</g>
		<g>
			<path style="fill:#92AEEC;" d="M298.978,283.368H192.387c-5.58,0-10.103-4.523-10.103-10.103v-70.036
				c0-5.58,4.523-10.103,10.103-10.103h106.591c5.58,0,10.103,4.523,10.103,10.103v70.036
				C309.081,278.845,304.558,283.368,298.978,283.368z"/>
		</g>
		<g>
			<path style="fill:#D5E2F7;" d="M306.454,281.053c-0.198,0-0.398-0.059-0.572-0.181l-120.668-84.467
				c-0.452-0.317-0.562-0.94-0.246-1.393c0.317-0.452,0.94-0.561,1.393-0.246l120.667,84.467c0.453,0.316,0.563,0.94,0.246,1.393
				C307.08,280.905,306.769,281.053,306.454,281.053z"/>
		</g>
		<g>
			<path style="fill:#D5E2F7;" d="M185.336,281.494c-0.315,0-0.625-0.148-0.82-0.427c-0.316-0.452-0.207-1.076,0.246-1.393
				l120.691-84.491c0.454-0.316,1.077-0.206,1.393,0.246c0.316,0.453,0.206,1.076-0.246,1.393l-120.692,84.491
				C185.734,281.435,185.534,281.494,185.336,281.494z"/>
		</g>
		<g>
			<g>
				<path style="fill:#DD3654;" d="M454.741,200.785v8.21c0,4.23-3.43,7.66-7.66,7.66h-120.91c-4.23,0-7.66-3.43-7.66-7.66v-8.21
					c0-4.23,3.43-7.66,7.66-7.66h120.91C451.311,193.125,454.741,196.555,454.741,200.785z"/>
			</g>
			<g>
				<path style="fill:#E74A68;" d="M454.741,200.785v0.78c0,4.23-3.43,7.66-7.66,7.66h-120.91c-4.23,0-7.66-3.43-7.66-7.66v-0.78
					c0-4.23,3.43-7.66,7.66-7.66h120.91C451.311,193.125,454.741,196.555,454.741,200.785z"/>
			</g>
		</g>
		<g>
			<path style="fill:#92AEEC;" d="M452.122,236.689H321.133c-1.657,0-3-1.343-3-3c0-1.657,1.343-3,3-3h130.989c1.657,0,3,1.343,3,3
				C455.122,235.345,453.779,236.689,452.122,236.689z"/>
		</g>
		<g>
			<path style="fill:#92AEEC;" d="M452.122,252.015H321.133c-1.657,0-3-1.343-3-3c0-1.657,1.343-3,3-3h130.989c1.657,0,3,1.343,3,3
				C455.122,250.671,453.779,252.015,452.122,252.015z"/>
		</g>
		<g>
			<path style="fill:#92AEEC;" d="M378.244,267.341h-57.111c-1.657,0-3-1.343-3-3c0-1.657,1.343-3,3-3h57.111c1.657,0,3,1.343,3,3
				C381.244,265.998,379.901,267.341,378.244,267.341z"/>
		</g>
		<g>
			<g>
				<path style="fill:#FFB31D;" d="M452.121,269.715c0,2.1-0.85,3.99-2.23,5.37c-1.37,1.37-3.27,2.22-5.37,2.22h-45.32
					c-4.19,0-7.6-3.4-7.6-7.59c0-0.74,0.11-1.46,0.31-2.14c0.36-1.24,1.03-2.35,1.92-3.24c1.38-1.37,3.28-2.22,5.37-2.22h45.32
					c3.46,0,6.37,2.3,7.29,5.46C452.011,268.255,452.121,268.975,452.121,269.715z"/>
			</g>
			<g>
				<path style="fill:#FFCC2C;" d="M451.811,267.575c-0.36,1.24-1.03,2.34-1.92,3.22c-1.37,1.38-3.27,2.23-5.37,2.23h-45.32
					c-3.44,0-6.36-2.3-7.29-5.45c0.36-1.24,1.03-2.35,1.92-3.24c1.38-1.37,3.28-2.22,5.37-2.22h45.32
					C447.981,262.115,450.891,264.415,451.811,267.575z"/>
			</g>
		</g>
		<g>
			<polygon style="fill:#A5B8D3;" points="367.239,382.495 269.779,382.495 278.529,365.155 283.539,355.215 353.479,355.215 
				358.489,365.155 			"/>
			<polygon style="fill:#869FBC;" points="358.489,365.155 278.529,365.155 283.539,355.215 353.479,355.215 			"/>
		</g>
		<g style="opacity:0.1;">
			<g>
				<polygon style="fill:#FFFFFF;" points="305.579,151.035 146.769,265.645 144.439,267.325 144.439,231.555 256.019,151.035 				
					"/>
			</g>
			<g>
				<polygon style="fill:#FFFFFF;" points="491.819,190.545 491.819,237.405 425.499,285.265 376.489,320.635 311.549,320.635 
					360.559,285.265 				"/>
			</g>
			<g>
				<polygon style="fill:#FFFFFF;" points="456.319,151.035 270.329,285.265 221.319,320.635 144.439,320.635 144.439,309.525 
					178.049,285.265 364.039,151.035 				"/>
			</g>
		</g>
	</g>
	<g>
		<g>
			<g>
				<g>
					<path style="fill:#F2C2B3;" d="M538.899,250.315c-0.31,2.96-0.67,4.91-0.67,4.91c-5.72,4.46-15.27,14.65-19.41,19.15
						c-1.74,1.88-4.25,2.9-6.8,2.67c-0.07,0-0.15-0.01-0.22-0.02c-4.84-0.53-8.08-5.24-7.09-10c2.36-11.32,7.24-36.01,7.24-36.01
						c0.83-0.2,1.63-0.35,2.39-0.45c7.11-0.97,9.65,1.212,9.65,1.212c-2.56,11.37-5.204,24.738-5.204,24.738
						c5.74-6.77,19.444-24.18,19.444-24.18C539.709,238.375,539.379,245.615,538.899,250.315z"/>
					<path style="fill:#F2CFCD;" d="M538.899,250.315c-5.56,4.73-16.04,14.2-19.7,18.49c-1.61,1.89-3.94,2.91-6.31,2.68
						c-0.07-0.01-0.14-0.01-0.2-0.02c-4.49-0.53-5.06-5.24-4.14-10c1.57-8.11,4.34-23.06,5.79-30.9c7.11-0.97,9.65,1.212,9.65,1.212
						c-2.56,11.37-5.204,24.738-5.204,24.738c5.74-6.77,19.444-24.18,19.444-24.18C539.709,238.375,539.379,245.615,538.899,250.315
						z"/>
				</g>
				<path style="fill:#B0BF33;" d="M541.993,220.199c0,0-10.151,14.683-16.847,21.817c-1.419,1.512-1.551,3.82-0.298,5.473
					c2.323,3.067,6.659,7.705,13.334,10.778C538.182,258.268,544.101,240.894,541.993,220.199z"/>
			</g>
			<g>
				<g>
					<path style="fill:#C2CCF7;" d="M600.179,198.165l-103.97,55.35c-1.39,0.75-2.9,1.11-4.38,1.11c-3.21,0-6.32-1.67-8.03-4.64
						c-0.92-1.6-1.31-3.35-1.23-5.05c0.15-3.23,1.98-6.29,5.08-7.86l105.32-53.12l4.46,8.78L600.179,198.165z"/>
					<path style="fill:#D5E2F7;" d="M597.429,192.735l-103.03,54.86c-1.39,0.75-2.89,1.1-4.37,1.1c-2.88,0-5.68-1.34-7.46-3.76
						c0.15-3.23,1.98-6.29,5.08-7.86l105.32-53.12L597.429,192.735z"/>
				</g>
				<g>
					<path style="fill:#C2CCF7;" d="M635.419,210.345c-17.25,7.64-37.45-0.16-45.09-17.43c-4.72-10.67-3.54-22.45,2.12-31.7
						c3.5-5.72,8.71-10.47,15.31-13.39c14-6.2,29.92-2.23,39.51,8.7l-35.27,15.6c-2.65,1.18-3.85,4.28-2.68,6.93l4.05,9.13
						c1.17,2.65,4.27,3.85,6.92,2.68l34.67-15.34l0.6-0.27C657.199,189.705,649.429,204.145,635.419,210.345z"/>
					<path style="fill:#D5E2F7;" d="M654.959,175.525c-2.16,15.68-15.61,27.76-31.88,27.76c-17.77,0-32.18-14.41-32.18-32.18
						c0-3.45,0.54-6.78,1.55-9.89c3.5-5.72,8.71-10.47,15.31-13.39c14-6.2,29.92-2.23,39.51,8.7l-35.27,15.6
						c-2.65,1.18-3.85,4.28-2.68,6.93l4.05,9.13c1.17,2.65,4.27,3.85,6.92,2.68L654.959,175.525z"/>
				</g>
			</g>
		</g>
		<g>
			<g>
				<g>
					<g>
						<path style="fill:#F2C2B3;" d="M543.591,389.149c0,0-1.775,0.517-4.7,0.053c-2.71-0.427-6.406-1.712-10.584-5.032
							l3.828-20.286l11.241,4.027l4.373,1.563L543.591,389.149z"/>
						<path style="fill:#F2CFCD;" d="M538.891,389.203c-2.71-0.427-6.406-1.712-10.584-5.032l3.828-20.286l11.241,4.027
							L538.891,389.203z"/>
					</g>
					<g>
						<path style="fill:#121040;" d="M539.13,401.767c-4.53,0.301-16.166,0.428-28.386-4.73c-2.223-0.937-3.463-3.334-2.933-5.585
							c0.083-0.359,0.206-0.711,0.382-1.058c0.034-0.072,0.069-0.144,0.112-0.212c0.734-1.378,2.099-2.312,3.651-2.525
							c4.06-0.547,13.056-1.898,16.35-3.486c0,0,4.467,4.178,10.718,5.007c1.431,0.205,2.974,0.221,4.566-0.029l-2.081,10.529
							C541.281,400.832,540.309,401.686,539.13,401.767z"/>
						<path style="fill:#12184F;" d="M535.714,395.986c-4.472,0.295-15.866,0.426-27.903-4.534c0.083-0.359,0.206-0.711,0.382-1.058
							c0.034-0.072,0.069-0.144,0.112-0.212c0.734-1.378,2.099-2.312,3.651-2.525c4.06-0.547,13.056-1.898,16.35-3.486
							c0,0,4.467,4.178,10.718,5.007l-0.93,4.719C537.866,395.05,536.894,395.905,535.714,395.986z"/>
					</g>
				</g>
				<g>
					<path style="fill:#12062E;" d="M570.079,288.265c-3.98,20.87-12.47,67.65-14.82,82.29c-0.53,3.35-3.3,5.87-6.68,6.13
						c-9.53,0.71-16.34-0.61-20.71-2.05c-0.7-0.23-1.34-0.56-1.92-0.97c-2.27-1.6-3.48-4.43-2.95-7.29
						c3.92-21.1,12.01-80.47,12.01-80.47l26.02,1.75L570.079,288.265z"/>
					<path style="fill:#121040;" d="M561.029,287.655c-4.12,21.71-12.17,66.13-14.45,80.33c-0.53,3.35-3.3,5.87-6.68,6.13
						c-5.56,0.41-10.19,0.14-13.95-0.45c-2.27-1.6-3.48-4.43-2.95-7.29c3.92-21.1,12.01-80.47,12.01-80.47L561.029,287.655z"/>
				</g>
			</g>
			<g>
				<g>
					<g>
						<path style="fill:#F2C2B3;" d="M597.999,380.895c0,0-1.38,1.23-4.22,2.07c-2.63,0.78-6.52,1.21-11.72,0.01l-5.27-19.96
							l11.88-1.2l4.62-0.47L597.999,380.895z"/>
						<path style="fill:#F2CFCD;" d="M593.779,382.965c-2.63,0.78-6.52,1.21-11.72,0.01l-5.27-19.96l11.88-1.2L593.779,382.965z"/>
					</g>
					<g>
						<path style="fill:#121040;" d="M599.399,394.205c-3.96,2.22-14.41,7.34-27.66,7.94c-2.41,0.11-4.56-1.52-5.05-3.78
							c-0.08-0.36-0.12-0.73-0.11-1.12c0-0.08,0-0.16,0.01-0.24c0.07-1.56,0.9-2.99,2.21-3.85c3.43-2.24,10.97-7.33,13.26-10.18
							c0,0,5.83,1.85,11.83-0.09c1.38-0.43,2.78-1.08,4.11-1.99l2.65,10.4C600.939,392.435,600.429,393.625,599.399,394.205z"/>
						<path style="fill:#12184F;" d="M593.829,390.455c-3.91,2.19-14.14,7.21-27.14,7.91c-0.08-0.36-0.12-0.73-0.11-1.12
							c0-0.08,0-0.16,0.01-0.24c0.07-1.56,0.9-2.99,2.21-3.85c3.43-2.24,10.97-7.33,13.26-10.18c0,0,5.83,1.85,11.83-0.09l1.19,4.66
							C595.369,388.685,594.859,389.875,593.829,390.455z"/>
					</g>
				</g>
				<g>
					<path style="fill:#121040;" d="M597.719,371.515c-6.37,3.16-15.28,3.28-20.87,2.95c-0.25-0.02-0.49-0.03-0.72-0.05
						c-2.72-0.19-4.99-2.14-5.57-4.81c-3.93-18.08-9.22-60.28-9.22-60.28c-9.15-5.18-18.85-19.11-18.85-19.11l37.09-2.63l8.01-0.57
						c0.57,20.8,10.31,64.35,13.38,77.63C601.609,367.415,600.259,370.255,597.719,371.515z"/>
					<path style="fill:#12184F;" d="M589.689,371.515c-3.79,1.88-8.49,2.68-12.84,2.95c-0.25-0.02-0.49-0.03-0.72-0.05
						c-2.72-0.19-4.99-2.14-5.57-4.81c-3.93-18.08-9.22-60.28-9.22-60.28c-9.15-5.18-18.85-19.11-18.85-19.11l37.09-2.63
						c0.73,21.01,10.32,63.9,13.36,77.06C593.579,367.415,592.239,370.255,589.689,371.515z"/>
				</g>
			</g>
		</g>
		<g>
			<path style="fill:#F2CFCD;" d="M518.092,243.538l2.962-10.788c0.274-0.973,1.065-1.714,2.053-1.926l0,0
				c2.026-0.434,3.777,1.46,3.185,3.446l-0.828,3.143c-0.492,1.651-1.622,3.038-3.14,3.853L518.092,243.538z"/>
			<g>
				<path style="fill:#F2C2B3;" d="M526.029,221.305l-0.14,3.15l-0.08,1.73c-0.2,4.26-3.67,7.7-7.93,7.7
					c-0.23,0-0.35-0.01-0.35-0.01c-0.04,0.04-0.08,0.07-0.11,0.11c-2.98,2.73-7.76,0.1-7.22-3.9l0.19-1.41l0.24-1.83
					c0.35-2.56,1.93-4.79,4.24-5.95l5.92-2.99C523.259,216.665,526.149,218.535,526.029,221.305z"/>
				<path style="fill:#F2CFCD;" d="M526.029,221.305l-0.14,3.15c-0.94,3.49-4.08,6.07-7.83,6.08c-0.23,0-0.36-0.01-0.36-0.01
					c-0.03,0.03-0.07,0.07-0.11,0.1c-2.51,2.3-6.25,0.9-7.2-1.95l0.24-1.83c0.35-2.56,1.93-4.79,4.24-5.95l5.92-2.99
					C523.259,216.665,526.149,218.535,526.029,221.305z"/>
			</g>
		</g>
		<g>
			<g>
				<path style="fill:#F2CFCD;" d="M562.629,198.055v15.33c-3.92,5.23-9.37,7.02-13.34,7.59c-2.73,0.39-5.17-1.76-5.17-4.53v-7.57
					L562.629,198.055z"/>
				<path style="fill:#F2B0AE;" d="M562.629,198.055v7.56c-3.67,2.83-8.35,5.26-12.5,7.12c-1.94,0.87-3.96,1.51-6.01,1.92v-5.78
					L562.629,198.055z"/>
			</g>
			<g>
				<path style="fill:#BFCE40;" d="M592.33,290.523c-22.641,10.95-46.48,5.335-57.421,1.64c-3.586-1.211-5.741-4.863-5.098-8.593
					c3.935-22.842,11.099-60.051,11.099-60.051c-1.788-4.467,3.211-7.066,3.211-7.066c0,2.758,2.44,4.912,5.174,4.523
					c3.966-0.572,9.411-2.361,13.33-7.591v-3.847c5.874-2.059,6.216,2.313,6.216,2.313c0.072,0.016,0.135,0.04,0.207,0.056
					c6.47,1.653,11.589,6.582,13.703,12.909c5.514,16.529,11.376,45.574,13.686,57.538
					C597.082,285.693,595.392,289.043,592.33,290.523z"/>
				<path style="fill:#B0BF33;" d="M592.329,290.525c-22.64,10.95-46.48,5.33-57.42,1.64c-3.59-1.21-5.74-4.87-5.1-8.59
					c0.17-0.97,0.34-1.97,0.52-2.99c12.34,4.41,25.92,5.32,38.61,2.05c5.56-1.43,11.42-4.04,13.84-9.25
					c1.8-3.88,1.29-8.4,0.74-12.65c-1.09-8.42-2.18-16.84-3.26-25.27c-0.59-4.56-1.19-9.16-2.77-13.48
					c-1.28-3.51-3.27-6.86-6.06-9.3c5.33,2.14,9.48,6.6,11.32,12.13c5.52,16.53,11.38,45.57,13.69,57.54
					C597.079,285.695,595.389,289.045,592.329,290.525z"/>
			</g>
			<g>
				<g>
					<path style="fill:#DD3654;" d="M624.939,326.495v14.12c0,2.68-2.17,4.85-4.84,4.85h-41.28v-31.32h33.77
						C619.409,314.145,624.939,319.675,624.939,326.495z"/>
					<path style="fill:#E74A68;" d="M616.899,326.495v14.12c0,2.68-2.17,4.85-4.84,4.85h-33.24v-31.32h25.73
						C611.369,314.145,616.899,319.675,616.899,326.495z"/>
				</g>
				<g>
					<path style="fill:#951F3B;" d="M589.419,324.755v16.63c0,2.25-1.82,4.08-4.08,4.08h-13.05c-2.25,0-4.08-1.83-4.08-4.08v-16.63
						c0-4.74,3.11-8.75,7.4-10.11c1.01-0.33,2.09-0.5,3.21-0.5c2.93,0,5.58,1.19,7.5,3.11
						C588.229,319.175,589.419,321.825,589.419,324.755z"/>
					<path style="fill:#A62742;" d="M582.999,324.755v16.63c0,2.25-1.83,4.08-4.09,4.08h-6.62c-2.25,0-4.08-1.83-4.08-4.08v-16.63
						c0-4.74,3.11-8.75,7.4-10.11c1.64,0.52,3.1,1.43,4.28,2.61C581.809,319.175,582.999,321.825,582.999,324.755z"/>
				</g>
				<g>
					<g>
						<path style="fill:#819ADB;" d="M609.559,310.135v4.01h-3v-4.01c0-2.98-2.42-5.39-5.39-5.39h-7.02c-2.97,0-5.39,2.41-5.39,5.39
							v4.01h-3v-4.01c0-4.63,3.77-8.39,8.39-8.39h7.02C605.789,301.745,609.559,305.505,609.559,310.135z"/>
					</g>
					<g>
						<path style="fill:#5C82C6;" d="M608.059,310.135v4.01h-1.5v-4.01c0-2.98-2.42-5.39-5.39-5.39h-8.52
							c-2.97,0-5.39,2.41-5.39,5.39v4.01h-1.5v-4.01c0-4.63,3.77-8.39,8.39-8.39h5.52
							C604.289,301.745,608.059,305.505,608.059,310.135z"/>
					</g>
				</g>
				<path style="fill:#FFFFFF;" d="M612.517,329.048h-0.779c-0.135-0.453-0.318-0.89-0.533-1.296l0.549-0.548
					c0.326-0.334,0.326-0.866,0-1.2l-1.391-1.391c-0.334-0.326-0.867-0.326-1.2,0l-0.548,0.548
					c-0.405-0.215-0.843-0.397-1.296-0.533v-0.779c0-0.469-0.382-0.85-0.851-0.85h-1.963c-0.469,0-0.85,0.382-0.85,0.85v0.779
					c-0.453,0.135-0.89,0.318-1.296,0.533l-0.548-0.548c-0.326-0.326-0.867-0.326-1.2,0l-1.383,1.391
					c-0.334,0.334-0.334,0.867,0,1.2l0.548,0.548c-0.223,0.405-0.405,0.842-0.54,1.296h-0.771c-0.469,0-0.851,0.382-0.851,0.85
					v1.963c0,0.469,0.382,0.85,0.851,0.85h0.771c0.135,0.453,0.318,0.89,0.54,1.296l-0.548,0.548c-0.334,0.326-0.334,0.866,0,1.2
					l1.383,1.383c0.334,0.334,0.874,0.334,1.2,0l0.548-0.548c0.405,0.223,0.843,0.405,1.296,0.54v0.771
					c0,0.469,0.381,0.85,0.85,0.85h1.963c0.469,0,0.851-0.382,0.851-0.85v-0.771c0.453-0.135,0.89-0.318,1.296-0.54l0.548,0.548
					c0.334,0.334,0.866,0.334,1.2,0l1.391-1.383c0.326-0.334,0.326-0.874,0-1.2l-0.549-0.548c0.215-0.405,0.398-0.843,0.533-1.296
					h0.779c0.469,0,0.85-0.382,0.85-0.85v-1.963C613.367,329.429,612.986,329.048,612.517,329.048z M608.566,330.876
					c0,0.151-0.008,0.302-0.04,0.453c-0.072,0.517-0.27,0.986-0.572,1.383c-0.175,0.238-0.389,0.453-0.636,0.636
					c-0.397,0.294-0.866,0.501-1.383,0.564c-0.143,0.032-0.294,0.04-0.445,0.04s-0.302-0.008-0.453-0.04
					c-0.517-0.072-0.986-0.27-1.383-0.564c-0.239-0.183-0.453-0.397-0.636-0.636c-0.294-0.397-0.493-0.866-0.564-1.383
					c-0.032-0.151-0.04-0.302-0.04-0.453c0-0.151,0.008-0.302,0.04-0.445c0.064-0.517,0.27-0.986,0.564-1.383
					c0.183-0.246,0.397-0.461,0.636-0.636c0.397-0.302,0.866-0.501,1.383-0.572c0.151-0.032,0.302-0.04,0.453-0.04
					s0.302,0.008,0.453,0.04c0.509,0.072,0.978,0.27,1.375,0.572c0.246,0.175,0.461,0.389,0.636,0.636
					c0.302,0.397,0.501,0.866,0.572,1.375C608.559,330.574,608.566,330.725,608.566,330.876z"/>
			</g>
			<g>
				<g>
					<path style="fill:#F2C2B3;" d="M613.319,264.905c-0.01,0.29-0.03,0.59-0.06,0.89c0,0-2.6,26.47-9.68,42.16
						c-1.45,3.21-4.86,4.56-7.84,3.86c-1.66-0.39-3.19-1.41-4.18-3.11c-0.04-0.07-0.08-0.14-0.12-0.22
						c-1.62-2.9-1.79-6.41-0.53-9.49c0.74-1.82,1.97-3.8,4.01-5.24c0,0,3.19-13.7,4.04-24.28c0.23-2.8-0.74-5.56-2.69-7.58
						c-5.03-5.24-15.41-16.23-21.3-23.89c0,0-2.3-9.45,1.2-18.26c0.43-1.11,0.96-2.21,1.6-3.28c0,0,21.61,25.03,31.27,36.46
						C611.869,256.275,613.489,260.525,613.319,264.905z"/>
					<path style="fill:#F2CFCD;" d="M609.169,265.225c-0.01,0.29-0.03,0.59-0.06,0.89c0,0-2.6,26.48-9.68,42.16
						c-0.78,1.74-2.14,2.93-3.69,3.54c-1.66-0.39-3.19-1.41-4.18-3.11c-0.04-0.07-0.08-0.14-0.12-0.22
						c-1.62-2.9-1.79-6.41-0.53-9.49c0.74-1.82,1.97-3.8,4.01-5.24c0,0,3.19-13.7,4.04-24.28c0.23-2.8-0.74-5.56-2.69-7.58
						c-5.03-5.24-15.41-16.23-21.3-23.89c0,0-2.3-9.45,1.2-18.26c6.01,6.96,21.09,24.47,28.72,33.51
						C607.719,256.595,609.339,260.855,609.169,265.225z"/>
				</g>
				<g>
					<path style="fill:#BFCE40;" d="M570.138,217.208c0.594,6.986,2.524,22.843,8.279,33.579c1.667,3.11,5.268,4.621,8.627,3.538
						c3.815-1.231,9.1-4.1,14.56-10.713c1.219-1.476,1.148-3.635-0.196-4.998c-3.607-3.656-10.771-11.194-16.359-18.798
						c0,0-4.243-6.15-11.17-6.544C571.705,213.148,569.953,215.04,570.138,217.208z"/>
					<path style="fill:#B0BF33;" d="M601.599,243.615c-5.458,6.613-10.743,9.482-14.557,10.713c-3.264,1.053-6.866-0.3-8.498-3.317
						l-0.025-0.046c1.74-0.36,3.43-0.88,5.03-1.66c4.48-2.18,8.13-6.9,7.44-11.83c-0.41-2.94-2.24-5.46-4-7.84
						c-4.02-5.42-8.04-10.83-12.06-16.25c6.31,0.9,10.12,6.43,10.12,6.43c5.59,7.6,12.75,15.14,16.36,18.8
						C602.749,239.975,602.819,242.135,601.599,243.615z"/>
				</g>
			</g>
		</g>
		<g>
			<path style="fill:#F2CFCD;" d="M511.567,159.582c0,0-3.129,7.259-1.467,16.814c0.674,3.874,0.871,7.822,0.325,11.716
				c-0.058,0.415-0.114,0.842-0.167,1.277c-0.862,7.149,2.437,14.176,8.468,18.111c1.464,0.955,3.129,1.922,4.994,2.838
				c7.703,3.781,16.708,3.873,24.539,0.363c6.78-3.039,14.921-7.555,18.159-12.793c0,0,10.493-0.116,14.405-5.797
				c4.572-6.639-3.204-15.165-10.284-11.311c-1.184,0.645-2.444,1.587-3.769,2.912c0,0,2.293-7.356-3.286-11.904
				c-1.553-1.266-3.502-1.92-5.498-2.087c-2.66-0.223-7.396-1.474-7.961-7.502c0,0-6.68,5.304-13.426,4.891
				c-3.234-0.198-5.641-3.198-4.929-6.359c0.009-0.038,0.017-0.076,0.027-0.114C531.697,160.637,523.874,165.911,511.567,159.582z"
				/>
			<path style="fill:#F2B0AE;" d="M574.319,192.65c-1.69,0.796-4.184,1.403-7.811,1.608v-4.545c0,0,0.984-1.075,2.404-2.207
				c0-0.008,0.008-0.016,0.025-0.016c2.182-1.756,5.382-3.643,7.589-2.043c0.747,0.533,1.173,1.419,1.231,2.33
				C577.847,189.122,577.387,191.198,574.319,192.65z"/>
			<path style="fill:#F29792;" d="M574.319,192.65c-1.69,0.796-4.184,1.403-7.811,1.608v-4.545c0,0,0.984-1.075,2.404-2.207
				c0-0.008,0.008-0.016,0.025-0.016c1.83-1.058,3.864-1.649,5.407-0.525c0.738,0.533,1.165,1.419,1.231,2.33
				C575.64,190.213,575.443,191.477,574.319,192.65z"/>
			<path style="fill:#944900;" d="M545.212,185.195c0,3.15-2.051,5.703-4.582,5.703c-2.531,0-4.582-2.553-4.582-5.703
				c0-3.149,2.052-5.703,4.582-5.703C543.161,179.492,545.212,182.045,545.212,185.195z"/>
			<circle style="fill:#FFFFFF;" cx="538.293" cy="179.495" r="3.296"/>
			<path style="fill:#944900;" d="M520.875,183.587c0,2.611-1.7,4.727-3.798,4.727c-2.097,0-3.798-2.116-3.798-4.727
				c0-2.611,1.7-4.727,3.798-4.727C519.174,178.86,520.875,180.976,520.875,183.587z"/>
			<path style="fill:#FFFFFF;" d="M517.871,178.862c0,1.509-1.223,2.732-2.732,2.732c-1.509,0-2.732-1.223-2.732-2.732
				s1.223-2.732,2.732-2.732C516.648,176.13,517.871,177.353,517.871,178.862z"/>
			<path style="fill:#944900;" d="M543.787,172.56c2.682,0.023,7.232,0.919,9.43,6.302c0,0,0.731-10.156-9.381-10.547
				c-0.901-0.035-1.753,0.485-2.088,1.322c-0.008,0.019-0.015,0.039-0.023,0.059C541.192,171.087,542.297,172.547,543.787,172.56z"
				/>
			<path style="fill:#944900;" d="M515.868,169.262c-2.054,0.018-5.538,0.704-7.222,4.827c0,0-0.56-7.778,7.185-8.078
				c0.69-0.027,1.342,0.372,1.599,1.012c0.006,0.015,0.012,0.03,0.018,0.045C517.856,168.133,517.009,169.252,515.868,169.262z"/>
			<path style="fill:#944900;" d="M529.351,186.792c-0.517-0.656-1.329-1.075-2.232-1.075c-1.567,0-2.847,1.272-2.847,2.847
				c0,0.057,0,0.115,0.008,0.172c-0.386-0.484-0.624-1.108-0.624-1.78c0-1.575,1.272-2.855,2.847-2.855
				C528.021,184.101,529.269,185.291,529.351,186.792z"/>
			<path style="fill:#944900;" d="M589.037,168.496c-0.656,1.895-2.043,3.782-4.775,5.095c0,0,5.152,8.959-2.125,15.145
				c0.714-5.735-5.686-11.158-11.601-7.934c-1.181,0.64-2.437,1.584-3.766,2.913c0,0,2.289-7.359-3.29-11.905
				c-1.551-1.272-3.495-1.92-5.497-2.092c-2.658-0.221-7.392-1.469-7.958-7.499c0,0-6.678,5.3-13.422,4.89
				c-3.241-0.197-5.645-3.2-4.931-6.358c0.008-0.041,0.017-0.074,0.025-0.115c0,0-7.827,5.275-20.133-1.058
				c0,0-2.773-2.248-4.143-6.243c-3.003-8.77,5.907-16.95,14.194-12.774c0.082,0.041,0.156,0.082,0.238,0.123
				c0,0,0-7.573,6.522-9.747c0.985-0.336,2.018-0.46,3.06-0.468c2.552,0,7.277,0.615,8.787,5.029c0,0,2.437-1.682,6.104-2.158
				c6.457-0.837,12.544,3.749,12.946,10.247c0.016,0.254,0.025,0.517,0.025,0.788c0,0,4.799-2.174,10.083-1.395
				c5.029,0.738,8.869,5.128,8.729,10.206c-0.041,1.427-0.394,2.88-1.321,4.11c0,0,2.855-0.673,6.022,0.074
				C587.7,158.536,590.678,163.746,589.037,168.496z"/>
			<g>
				<path style="fill:#944900;" d="M538.655,195.219c-0.165,0.981-0.723,2.426-2.395,3.891c-4.16,3.675-10.807,1.466-11.756-3.809
					c-0.052-0.237-0.083-0.485-0.103-0.743c-0.01-0.206-0.021-0.413-0.021-0.63c0,0,6.792-1.848,14.306,0
					C538.686,193.929,538.8,194.424,538.655,195.219z"/>
				<path style="fill:#FFFFFF;" d="M538.655,195.219c-1.373,1.074-4.056,1.796-7.132,1.796c-3.004,0-5.625-0.691-7.019-1.713
					c-0.052-0.237-0.083-0.485-0.103-0.743c-0.01-0.206-0.021-0.413-0.021-0.63c0,0,6.792-1.848,14.306,0
					C538.686,193.929,538.8,194.424,538.655,195.219z"/>
			</g>
		</g>
	</g>
	<g>
		<g>
			<g>
				<g>
					<g>
						<g>
							<path style="fill:#DD3654;" d="M229.386,99.255v36.93c0,5.97-4.84,10.81-10.81,10.81h-101.38c-5.97,0-10.81-4.84-10.81-10.81
								v-36.93c0-5.97,4.84-10.81,10.81-10.81h101.38C224.546,88.445,229.386,93.285,229.386,99.255z"/>
						</g>
						<g>
							<path style="fill:#E74A68;" d="M229.386,99.255v25.04c0,5.97-4.84,10.81-10.81,10.81h-101.38c-5.97,0-10.81-4.84-10.81-10.81
								v-25.04c0-5.97,4.84-10.81,10.81-10.81h101.38C224.546,88.445,229.386,93.285,229.386,99.255z"/>
						</g>
					</g>
					<g>
						<polygon style="fill:#DD3654;" points="211.965,165.465 202.01,142.935 173.716,142.935 						"/>
					</g>
				</g>
				<g>
					<g>
						<path style="fill:#FFFFFF;" d="M138.69,119.518c0.383,0.167,4.604,2.765,12.663,7.793c0.566,0.666,0.849,1.324,0.849,1.974
							v0.1c0,1.515-0.899,2.398-2.698,2.648c-0.699,0-2.082-0.707-4.146-2.123l-13.463-8.342c-0.649-0.699-0.974-1.39-0.974-2.073
							c0-1.316,1.065-2.439,3.197-3.372c9.591-6.177,14.67-9.266,15.236-9.266h0.3c1.698,0.433,2.548,1.316,2.548,2.647v0.2
							c0,1.266-1.166,2.456-3.497,3.572C148.622,113.391,145.284,115.472,138.69,119.518z"/>
					</g>
					<g>
						<path style="fill:#FFFFFF;" d="M174.9,96.49c1.715,0.3,2.572,1.148,2.572,2.547v0.624
							c-8.426,23.228-13.088,35.941-13.987,38.139c-0.716,0.765-1.432,1.148-2.148,1.148h-0.2c-1.448,0-2.331-0.916-2.648-2.747
							c0.084-0.566,4.746-13.387,13.987-38.463C173.293,96.907,174.101,96.49,174.9,96.49z"/>
					</g>
					<g>
						<path style="fill:#FFFFFF;" d="M186.317,106.406c0.633,0,2.731,1.174,6.294,3.521c7.159,4.413,11.04,6.877,11.639,7.393
							c0.399,0.533,0.599,1.074,0.599,1.623v0.2c0,1.266-0.932,2.289-2.797,3.072c-9.791,6.244-14.936,9.366-15.436,9.366h-0.475
							c-1.715-0.316-2.572-1.199-2.572-2.647v-0.1c0-1.282,1.19-2.497,3.571-3.646l9.741-6.219
							c-7.959-4.878-12.172-7.559-12.638-8.042c-0.45-0.616-0.674-1.232-0.674-1.848
							C183.919,107.297,184.835,106.406,186.317,106.406z"/>
					</g>
				</g>
			</g>
			<g>
				<g>
					<g>
						<path style="fill:#FFB31D;" d="M508.581,88.245v23.067c0,5.962-4.833,10.794-10.805,10.794h-68.92
							c-5.962,0-10.794-4.833-10.794-10.794V88.245c0-5.962,4.833-10.794,10.794-10.794h68.92
							C503.748,77.451,508.581,82.284,508.581,88.245z"/>
					</g>
					<g>
						<path style="fill:#FFCC2C;" d="M508.581,88.245v13.086c0,5.962-4.833,10.794-10.805,10.794h-68.92
							c-5.962,0-10.794-4.833-10.794-10.794V88.245c0-5.962,4.833-10.794,10.794-10.794h68.92
							C503.748,77.451,508.581,82.284,508.581,88.245z"/>
					</g>
					<g>
						<polygon style="fill:#FFB31D;" points="427.233,133.943 434.332,119.967 451.858,119.967 						"/>
					</g>
				</g>
				<g>
					<path style="fill:#FFFFFF;" d="M432.782,108.939c-0.561-0.64-0.843-1.402-0.843-2.287V91.903c0-0.593,0.023-1.098,0.07-1.514
						c0.047-0.416,0.143-0.84,0.289-1.272c0.145-0.432,0.352-0.78,0.616-1.046c0.266-0.265,0.627-0.481,1.085-0.647
						c0.458-0.166,1.009-0.25,1.654-0.25h6.102c1.02,0,1.941,0.06,2.763,0.18c0.822,0.12,1.618,0.341,2.388,0.663
						c0.771,0.323,1.41,0.744,1.92,1.265c0.51,0.52,0.919,1.196,1.226,2.029c0.307,0.833,0.46,1.805,0.46,2.918
						c0,2.341-0.759,4.11-2.278,5.307c-1.52,1.197-3.679,1.795-6.478,1.795h-4.042v5.322c0,0.885-0.286,1.647-0.858,2.287
						c-0.572,0.64-1.254,0.96-2.045,0.96C434.02,109.899,433.345,109.579,432.782,108.939z M440.82,97.787
						c0.708-0.021,1.296-0.083,1.764-0.187c0.469-0.104,0.882-0.286,1.241-0.546c0.359-0.26,0.622-0.619,0.788-1.077
						c0.166-0.458,0.25-1.04,0.25-1.748c0-1.29-0.3-2.159-0.897-2.606c-0.599-0.447-1.559-0.671-2.88-0.671h-3.371v6.836H440.82z"/>
					<path style="fill:#FFFFFF;" d="M454.352,108.947c-0.561-0.634-0.843-1.399-0.843-2.295V90.42c0-0.895,0.281-1.66,0.843-2.294
						c0.563-0.634,1.238-0.952,2.029-0.952c0.801,0,1.483,0.318,2.045,0.952c0.561,0.635,0.843,1.399,0.843,2.294v5.416h8.085V90.42
						c0-0.884,0.283-1.646,0.851-2.287c0.566-0.64,1.246-0.96,2.036-0.96c0.791,0,1.47,0.318,2.037,0.952
						c0.567,0.635,0.851,1.399,0.851,2.294v16.232c0,0.895-0.283,1.66-0.851,2.295c-0.567,0.635-1.246,0.952-2.037,0.952
						c-0.79,0-1.467-0.317-2.028-0.952c-0.563-0.634-0.843-1.399-0.843-2.295l-0.016-6.149h-8.085v6.149
						c0,0.895-0.281,1.66-0.843,2.295c-0.563,0.635-1.244,0.952-2.045,0.952C455.591,109.899,454.915,109.581,454.352,108.947z"/>
					<path style="fill:#FFFFFF;" d="M478.653,108.939c-0.561-0.64-0.843-1.402-0.843-2.287V91.903c0-0.593,0.024-1.098,0.07-1.514
						c0.047-0.416,0.143-0.84,0.289-1.272c0.146-0.432,0.352-0.78,0.616-1.046c0.266-0.265,0.627-0.481,1.085-0.647
						c0.458-0.166,1.009-0.25,1.654-0.25h6.103c1.02,0,1.94,0.06,2.763,0.18c0.822,0.12,1.618,0.341,2.388,0.663
						c0.771,0.323,1.41,0.744,1.92,1.265c0.51,0.52,0.919,1.196,1.226,2.029c0.307,0.833,0.46,1.805,0.46,2.918
						c0,2.341-0.759,4.11-2.278,5.307c-1.52,1.197-3.679,1.795-6.478,1.795h-4.042v5.322c0,0.885-0.286,1.647-0.858,2.287
						c-0.572,0.64-1.254,0.96-2.045,0.96C479.892,109.899,479.216,109.579,478.653,108.939z M486.691,97.787
						c0.708-0.021,1.296-0.083,1.764-0.187c0.469-0.104,0.882-0.286,1.241-0.546c0.359-0.26,0.622-0.619,0.788-1.077
						c0.166-0.458,0.25-1.04,0.25-1.748c0-1.29-0.3-2.159-0.897-2.606c-0.599-0.447-1.559-0.671-2.88-0.671h-3.371v6.836H486.691z"
						/>
				</g>
			</g>
			<g>
				<g>
					<g>
						<path style="fill:#B0BF33;" d="M172.27,331.291v19.015c0,4.914-3.984,8.898-8.907,8.898H86.46
							c-4.914,0-8.898-3.984-8.898-8.898v-19.015c0-4.914,3.984-8.898,8.898-8.898h76.903
							C168.286,322.393,172.27,326.376,172.27,331.291z"/>
					</g>
					<g>
						<path style="fill:#BFCE40;" d="M172.27,331.291v10.787c0,4.914-3.984,8.898-8.907,8.898H86.46
							c-4.914,0-8.898-3.984-8.898-8.898v-10.787c0-4.914,3.984-8.898,8.898-8.898h76.903
							C168.286,322.393,172.27,326.376,172.27,331.291z"/>
					</g>
					<g>
						<polygon style="fill:#BFCE40;" points="159.243,312.001 153.391,323.522 138.944,323.522 						"/>
					</g>
				</g>
				<g>
					<path style="fill:#FFFFFF;" d="M89.697,348.355c-0.463-0.522-0.695-1.153-0.695-1.891v-13.381c0-0.737,0.232-1.368,0.695-1.892
						c0.463-0.523,1.021-0.784,1.673-0.784c0.66,0,1.222,0.262,1.685,0.784c0.463,0.523,0.695,1.154,0.695,1.892v4.465h6.665v-4.465
						c0-0.729,0.234-1.357,0.701-1.885c0.468-0.527,1.027-0.791,1.679-0.791c0.652,0,1.211,0.262,1.679,0.784
						c0.467,0.523,0.701,1.154,0.701,1.892v13.381c0,0.737-0.234,1.368-0.701,1.891c-0.468,0.523-1.027,0.785-1.679,0.785
						c-0.652,0-1.21-0.262-1.672-0.785c-0.463-0.522-0.695-1.153-0.695-1.891l-0.013-5.069H93.75v5.069
						c0,0.737-0.231,1.368-0.695,1.891c-0.463,0.523-1.025,0.785-1.685,0.785C90.718,349.141,90.161,348.879,89.697,348.355z"/>
					<path style="fill:#FFFFFF;" d="M112.477,348.35c-0.459-0.527-0.688-1.156-0.688-1.885v-12.506h-3.539
						c-0.498,0-0.928-0.174-1.293-0.522c-0.364-0.347-0.547-0.766-0.547-1.254c0-0.489,0.183-0.907,0.547-1.255
						c0.365-0.347,0.795-0.521,1.293-0.521h11.747c0.497,0,0.927,0.174,1.287,0.521c0.36,0.348,0.541,0.77,0.541,1.268
						c0,0.489-0.18,0.905-0.541,1.248c-0.36,0.343-0.789,0.515-1.287,0.515h-3.461v12.506c0,0.729-0.233,1.357-0.701,1.885
						c-0.467,0.527-1.027,0.791-1.679,0.791C113.495,349.141,112.935,348.877,112.477,348.35z"/>
					<path style="fill:#FFFFFF;" d="M133.216,347.609c-0.382-0.411-0.748-1.094-1.1-2.046l-4.194-10.434v12.364
						c0,0.368-0.073,0.699-0.219,0.99c-0.146,0.292-0.337,0.513-0.573,0.663c-0.236,0.149-0.498,0.257-0.785,0.321
						c-0.288,0.064-0.575,0.063-0.862-0.007c-0.288-0.068-0.549-0.18-0.785-0.334c-0.236-0.154-0.427-0.375-0.572-0.663
						c-0.146-0.287-0.219-0.61-0.219-0.971l-0.013-13.741c0-0.489,0.101-0.95,0.303-1.383c0.201-0.434,0.474-0.789,0.817-1.068
						c0.343-0.278,0.729-0.502,1.158-0.669c0.429-0.167,0.879-0.23,1.351-0.187c0.472,0.043,0.928,0.163,1.37,0.36
						c0.442,0.197,0.86,0.532,1.254,1.004c0.395,0.472,0.716,1.046,0.965,1.724l3.757,9.251l3.757-9.251
						c0.249-0.678,0.57-1.252,0.965-1.724c0.394-0.472,0.813-0.807,1.254-1.004c0.441-0.197,0.898-0.317,1.37-0.36
						c0.472-0.043,0.922,0.02,1.351,0.187c0.429,0.167,0.814,0.391,1.158,0.669c0.343,0.279,0.615,0.635,0.817,1.068
						c0.202,0.433,0.302,0.894,0.302,1.383l-0.013,13.741c0,0.42-0.099,0.787-0.296,1.1c-0.197,0.313-0.446,0.543-0.746,0.688
						c-0.3,0.146-0.622,0.219-0.965,0.219c-0.343,0-0.665-0.069-0.965-0.206c-0.3-0.138-0.549-0.364-0.746-0.682
						c-0.197-0.317-0.296-0.69-0.296-1.119l0.013-12.364l-4.207,10.434c-0.352,0.952-0.72,1.635-1.106,2.046
						c-0.386,0.412-0.935,0.618-1.647,0.618C134.149,348.228,133.598,348.022,133.216,347.609z"/>
					<path style="fill:#FFFFFF;" d="M150.656,348.549c-0.369-0.395-0.62-0.866-0.753-1.415c-0.133-0.549-0.2-1.171-0.2-1.866
						v-12.184c0-0.737,0.232-1.368,0.695-1.892c0.463-0.523,1.021-0.784,1.673-0.784c0.66,0,1.222,0.262,1.685,0.784
						c0.463,0.523,0.695,1.154,0.695,1.892l0.013,12.493h6.446c0.472,0,0.872,0.171,1.203,0.515c0.33,0.343,0.496,0.763,0.496,1.261
						c0,0.497-0.165,0.92-0.496,1.267c-0.33,0.348-0.731,0.521-1.203,0.521h-8.826C151.501,349.141,151.024,348.943,150.656,348.549
						z"/>
				</g>
			</g>
		</g>
		<g>
			<g>
				<path style="fill:#92AEEC;" d="M236.397,66.764c-2.045,0-3.709-1.666-3.709-3.715c0-0.604-0.49-1.094-1.094-1.094
					c-0.604,0-1.094,0.49-1.094,1.094c0,2.048-1.666,3.715-3.715,3.715c-0.604,0-1.094,0.49-1.094,1.094
					c0,0.604,0.49,1.094,1.094,1.094c2.048,0,3.715,1.664,3.715,3.709c0,0.604,0.49,1.094,1.094,1.094
					c0.604,0,1.094-0.49,1.094-1.094c0-2.045,1.664-3.709,3.709-3.709c0.604,0,1.094-0.49,1.094-1.094
					C237.491,67.254,237.001,66.764,236.397,66.764z"/>
				<path style="fill:#FFFFFF;" d="M123.822,230.159c-2.045,0-3.709-1.666-3.709-3.715c0-0.604-0.49-1.094-1.094-1.094
					c-0.604,0-1.094,0.49-1.094,1.094c0,2.048-1.666,3.715-3.715,3.715c-0.604,0-1.094,0.49-1.094,1.094
					c0,0.604,0.49,1.094,1.094,1.094c2.048,0,3.715,1.664,3.715,3.71c0,0.604,0.49,1.094,1.094,1.094
					c0.604,0,1.094-0.49,1.094-1.094c0-2.045,1.664-3.71,3.709-3.71c0.604,0,1.094-0.49,1.094-1.094
					C124.916,230.649,124.426,230.159,123.822,230.159z"/>
				<path style="fill:#FFFFFF;" d="M519.769,302.989c-2.045,0-3.709-1.666-3.709-3.715c0-0.604-0.49-1.094-1.094-1.094
					s-1.094,0.49-1.094,1.094c0,2.048-1.666,3.715-3.715,3.715c-0.604,0-1.094,0.49-1.094,1.094s0.49,1.094,1.094,1.094
					c2.048,0,3.715,1.664,3.715,3.71c0,0.604,0.49,1.094,1.094,1.094s1.094-0.49,1.094-1.094c0-2.045,1.664-3.71,3.709-3.71
					c0.604,0,1.094-0.49,1.094-1.094S520.373,302.989,519.769,302.989z"/>
				<path style="fill:#FFFFFF;" d="M401.684,134.807c-2.045,0-3.709-1.666-3.709-3.715c0-0.604-0.49-1.094-1.094-1.094
					c-0.604,0-1.094,0.49-1.094,1.094c0,2.048-1.666,3.715-3.715,3.715c-0.604,0-1.094,0.49-1.094,1.094s0.49,1.094,1.094,1.094
					c2.048,0,3.715,1.664,3.715,3.71c0,0.604,0.49,1.094,1.094,1.094c0.604,0,1.094-0.49,1.094-1.094c0-2.045,1.664-3.71,3.709-3.71
					c0.604,0,1.094-0.49,1.094-1.094S402.288,134.807,401.684,134.807z"/>
				<path style="fill:#92AEEC;" d="M93.605,92.474c-2.045,0-3.709-1.666-3.709-3.715c0-0.604-0.49-1.094-1.094-1.094
					c-0.604,0-1.094,0.49-1.094,1.094c0,2.048-1.666,3.715-3.715,3.715c-0.604,0-1.094,0.49-1.094,1.094s0.49,1.094,1.094,1.094
					c2.048,0,3.715,1.664,3.715,3.709c0,0.604,0.49,1.094,1.094,1.094c0.604,0,1.094-0.49,1.094-1.094
					c0-2.045,1.664-3.709,3.709-3.709c0.604,0,1.094-0.49,1.094-1.094S94.21,92.474,93.605,92.474z"/>
				<path style="fill:#FFFFFF;" d="M645.398,241.931c-2.045,0-3.709-1.666-3.709-3.715c0-0.604-0.49-1.094-1.094-1.094
					s-1.094,0.49-1.094,1.094c0,2.048-1.666,3.715-3.715,3.715c-0.604,0-1.094,0.49-1.094,1.094s0.49,1.094,1.094,1.094
					c2.048,0,3.715,1.664,3.715,3.71c0,0.604,0.49,1.094,1.094,1.094s1.094-0.49,1.094-1.094c0-2.045,1.664-3.71,3.709-3.71
					c0.604,0,1.094-0.49,1.094-1.094S646.002,241.931,645.398,241.931z"/>
				<path style="fill:#FFFFFF;" d="M668.737,387.716c-2.045,0-3.709-1.666-3.709-3.715c0-0.604-0.49-1.094-1.094-1.094
					c-0.604,0-1.094,0.49-1.094,1.094c0,2.048-1.666,3.715-3.715,3.715c-0.604,0-1.094,0.49-1.094,1.094s0.49,1.094,1.094,1.094
					c2.048,0,3.715,1.664,3.715,3.71c0,0.604,0.49,1.094,1.094,1.094c0.604,0,1.094-0.49,1.094-1.094c0-2.045,1.664-3.71,3.709-3.71
					c0.604,0,1.094-0.49,1.094-1.094S669.342,387.716,668.737,387.716z"/>
				<path style="fill:#FFFFFF;" d="M588.397,118.593c-2.045,0-3.709-1.666-3.709-3.715c0-0.604-0.49-1.094-1.094-1.094
					c-0.604,0-1.094,0.49-1.094,1.094c0,2.048-1.666,3.715-3.715,3.715c-0.604,0-1.094,0.49-1.094,1.094
					c0,0.604,0.49,1.094,1.094,1.094c2.048,0,3.715,1.664,3.715,3.71c0,0.604,0.49,1.094,1.094,1.094
					c0.604,0,1.094-0.49,1.094-1.094c0-2.045,1.664-3.71,3.709-3.71c0.604,0,1.094-0.49,1.094-1.094
					C589.491,119.083,589.001,118.593,588.397,118.593z"/>
				<path style="fill:#FFFFFF;" d="M254.641,78.243c-2.984,0-5.412-2.431-5.412-5.42c0-0.882-0.715-1.596-1.596-1.596
					c-0.882,0-1.596,0.715-1.596,1.596c0,2.989-2.431,5.42-5.42,5.42c-0.882,0-1.596,0.715-1.596,1.596s0.715,1.596,1.596,1.596
					c2.989,0,5.42,2.428,5.42,5.412c0,0.882,0.715,1.597,1.596,1.597c0.882,0,1.596-0.715,1.596-1.597
					c0-2.984,2.428-5.412,5.412-5.412c0.882,0,1.596-0.715,1.596-1.596S255.522,78.243,254.641,78.243z"/>
				<path style="fill:#FFFFFF;" d="M665.647,233.929c-2.984,0-5.412-2.431-5.412-5.42c0-0.882-0.715-1.596-1.596-1.596
					s-1.596,0.715-1.596,1.596c0,2.989-2.431,5.42-5.42,5.42c-0.882,0-1.596,0.715-1.596,1.596c0,0.882,0.715,1.596,1.596,1.596
					c2.989,0,5.42,2.428,5.42,5.412c0,0.882,0.715,1.596,1.596,1.596s1.596-0.715,1.596-1.596c0-2.984,2.428-5.412,5.412-5.412
					c0.882,0,1.596-0.715,1.596-1.596C667.244,234.644,666.529,233.929,665.647,233.929z"/>
				<path style="fill:#FFFFFF;" d="M574.781,126.073c-2.984,0-5.412-2.431-5.412-5.42c0-0.882-0.715-1.596-1.596-1.596
					s-1.596,0.715-1.596,1.596c0,2.989-2.431,5.42-5.42,5.42c-0.882,0-1.596,0.715-1.596,1.596s0.715,1.596,1.596,1.596
					c2.989,0,5.42,2.428,5.42,5.412c0,0.882,0.715,1.596,1.596,1.596s1.596-0.715,1.596-1.596c0-2.984,2.428-5.412,5.412-5.412
					c0.882,0,1.596-0.715,1.596-1.596S575.662,126.073,574.781,126.073z"/>
				<path style="fill:#FFFFFF;" d="M223.599,383.11c-2.984,0-5.412-2.431-5.412-5.42c0-0.882-0.715-1.596-1.596-1.596
					s-1.597,0.715-1.597,1.596c0,2.989-2.431,5.42-5.42,5.42c-0.882,0-1.596,0.715-1.596,1.596c0,0.882,0.715,1.596,1.596,1.596
					c2.989,0,5.42,2.428,5.42,5.412c0,0.882,0.715,1.596,1.597,1.596s1.596-0.715,1.596-1.596c0-2.984,2.428-5.412,5.412-5.412
					c0.882,0,1.596-0.715,1.596-1.596C225.196,383.825,224.481,383.11,223.599,383.11z"/>
			</g>
			<g>
				<path style="fill:#92AEEC;" d="M679.887,121.185c-10.225,0-18.545,8.319-18.545,18.545c0,10.225,8.319,18.544,18.545,18.544
					c10.225,0,18.544-8.319,18.544-18.544C698.432,129.504,690.113,121.185,679.887,121.185z M695.452,139.729
					c0,1.453-2.804,3.35-7.578,4.418c0.153-1.459,0.238-2.945,0.238-4.418c0-5.433-1.059-11.057-3.071-14.669
					C691.094,127.193,695.452,132.955,695.452,139.729z M679.887,155.293c-1.453,0-3.35-2.804-4.418-7.578
					c1.459,0.153,2.945,0.238,4.418,0.238c1.473,0,2.959-0.085,4.418-0.238C683.237,152.489,681.34,155.293,679.887,155.293z
					 M679.887,144.973c-1.774,0-3.428-0.109-4.945-0.299c-0.19-1.517-0.299-3.171-0.299-4.945c0-9.501,3.106-15.564,5.244-15.564
					c2.138,0,5.244,6.063,5.244,15.564c0,1.774-0.109,3.428-0.299,4.945C683.315,144.864,681.661,144.973,679.887,144.973z
					 M674.734,125.06c-2.012,3.612-3.071,9.237-3.071,14.669c0,1.473,0.085,2.959,0.238,4.418c-4.774-1.069-7.578-2.965-7.578-4.418
					C664.323,132.955,668.681,127.193,674.734,125.06z M665.218,144.882c1.92,1.07,4.406,1.867,7.136,2.38
					c0.513,2.73,1.311,5.216,2.38,7.136C670.296,152.834,666.782,149.32,665.218,144.882z M685.04,154.398
					c1.069-1.92,1.867-4.406,2.38-7.136c2.731-0.513,5.216-1.311,7.136-2.38C692.992,149.32,689.478,152.834,685.04,154.398z"/>
				<path style="fill:#92AEEC;" d="M45.422,228.012c-8.392,0-15.22,6.828-15.22,15.22c0,8.392,6.828,15.22,15.22,15.22
					s15.22-6.827,15.22-15.22C60.642,234.839,53.814,228.012,45.422,228.012z M58.196,243.232c0,1.192-2.302,2.749-6.22,3.626
					c0.126-1.198,0.195-2.417,0.195-3.626c0-4.459-0.869-9.075-2.521-12.039C54.62,232.943,58.196,237.672,58.196,243.232z
					 M45.422,256.005c-1.192,0-2.749-2.301-3.626-6.22c1.198,0.125,2.417,0.195,3.626,0.195c1.209,0,2.428-0.07,3.626-0.195
					C48.171,253.704,46.614,256.005,45.422,256.005z M45.422,247.535c-1.456,0-2.813-0.089-4.059-0.245
					c-0.156-1.245-0.245-2.602-0.245-4.059c0-7.798,2.549-12.774,4.304-12.774s4.304,4.976,4.304,12.774
					c0,1.456-0.089,2.813-0.245,4.059C48.236,247.446,46.878,247.535,45.422,247.535z M41.193,231.192
					c-1.651,2.964-2.521,7.581-2.521,12.039c0,1.209,0.07,2.428,0.195,3.626c-3.918-0.877-6.22-2.434-6.22-3.626
					C32.648,237.672,36.225,232.943,41.193,231.192z M33.383,247.461c1.576,0.878,3.616,1.532,5.857,1.953
					c0.421,2.241,1.076,4.281,1.953,5.857C37.551,253.987,34.667,251.103,33.383,247.461z M49.651,255.271
					c0.878-1.576,1.532-3.616,1.953-5.857c2.241-0.421,4.281-1.076,5.857-1.953C56.178,251.103,53.294,253.987,49.651,255.271z"/>
				<g>
					<path style="fill:#FFFFFF;" d="M441.229,386.417l-15.911-25.375c-0.298-0.475-0.811-0.758-1.37-0.758
						c-0.561,0-1.073,0.284-1.371,0.759l-15.911,25.374c-0.313,0.499-0.33,1.129-0.044,1.644c0.286,0.516,0.828,0.835,1.415,0.835
						h31.822c0.586,0,1.129-0.319,1.416-0.835C441.56,387.545,441.543,386.915,441.229,386.417z M436.934,385.659h-25.972
						l12.986-20.71L436.934,385.659z"/>
					<path style="fill:#FFFFFF;" d="M422.385,381.346c-0.378,0.398-0.569,0.879-0.569,1.43c0,0.568,0.199,1.056,0.593,1.448
						c0.392,0.393,0.872,0.593,1.429,0.593c0.567,0,1.051-0.205,1.438-0.609c0.382-0.398,0.575-0.88,0.575-1.432
						c0-0.59-0.203-1.084-0.604-1.47C424.427,380.521,423.131,380.561,422.385,381.346z"/>
					<path style="fill:#FFFFFF;" d="M422.449,378.963c0.042,0.403,0.201,0.729,0.47,0.968c0.268,0.24,0.569,0.362,0.896,0.362
						c0.326,0,0.628-0.122,0.897-0.361c0.27-0.24,0.427-0.566,0.469-0.959l0.838-6.678c0.11-0.899-0.271-1.604-1.074-1.985
						c-0.751-0.356-1.515-0.357-2.266-0.001c-0.804,0.382-1.185,1.087-1.075,1.985L422.449,378.963z"/>
				</g>
				<g>
					<path style="fill:#FFFFFF;" d="M387.966,100.662h-1.058c-0.184-0.615-0.432-1.209-0.723-1.76l0.745-0.745
						c0.443-0.453,0.443-1.177,0-1.63l-1.889-1.889c-0.453-0.443-1.177-0.443-1.63,0l-0.745,0.745
						c-0.551-0.292-1.144-0.54-1.76-0.723v-1.058c0-0.637-0.518-1.155-1.155-1.155h-2.666c-0.637,0-1.155,0.518-1.155,1.155v1.058
						c-0.615,0.183-1.209,0.432-1.76,0.723l-0.745-0.745c-0.443-0.443-1.177-0.443-1.63,0l-1.878,1.889
						c-0.453,0.453-0.453,1.177,0,1.63l0.745,0.745c-0.302,0.551-0.551,1.144-0.734,1.76h-1.047c-0.637,0-1.155,0.518-1.155,1.155
						v2.666c0,0.637,0.518,1.155,1.155,1.155h1.047c0.184,0.615,0.432,1.209,0.734,1.76l-0.745,0.745
						c-0.453,0.443-0.453,1.177,0,1.63l1.878,1.878c0.453,0.453,1.187,0.453,1.63,0l0.745-0.745c0.551,0.302,1.144,0.551,1.76,0.734
						v1.047c0,0.637,0.518,1.155,1.155,1.155h2.666c0.637,0,1.155-0.518,1.155-1.155v-1.047c0.615-0.184,1.209-0.432,1.76-0.734
						l0.745,0.745c0.453,0.453,1.177,0.453,1.63,0l1.889-1.878c0.443-0.453,0.443-1.188,0-1.63l-0.745-0.745
						c0.291-0.551,0.54-1.144,0.723-1.76h1.058c0.637,0,1.155-0.518,1.155-1.155v-2.666
						C389.121,101.18,388.603,100.662,387.966,100.662z M382.601,103.145c0,0.205-0.011,0.41-0.054,0.615
						c-0.097,0.702-0.367,1.339-0.777,1.878c-0.237,0.324-0.529,0.615-0.864,0.864c-0.54,0.399-1.177,0.68-1.878,0.766
						c-0.194,0.043-0.399,0.054-0.605,0.054c-0.205,0-0.41-0.011-0.615-0.054c-0.702-0.097-1.339-0.367-1.878-0.766
						c-0.324-0.248-0.615-0.54-0.864-0.864c-0.4-0.54-0.669-1.177-0.767-1.878c-0.043-0.205-0.054-0.41-0.054-0.615
						c0-0.205,0.011-0.41,0.054-0.605c0.086-0.702,0.367-1.339,0.767-1.878c0.248-0.335,0.54-0.626,0.864-0.864
						c0.54-0.41,1.177-0.68,1.878-0.777c0.205-0.043,0.41-0.054,0.615-0.054c0.205,0,0.41,0.011,0.615,0.054
						c0.691,0.097,1.328,0.367,1.868,0.777c0.335,0.237,0.626,0.529,0.864,0.864c0.41,0.54,0.68,1.177,0.777,1.868
						C382.59,102.735,382.601,102.94,382.601,103.145z"/>
					<path style="fill:#FFFFFF;" d="M364.633,113.078h-1.429c-0.248-0.831-0.583-1.633-0.977-2.376l1.006-1.006
						c0.598-0.612,0.598-1.589,0-2.201l-2.551-2.551c-0.612-0.598-1.589-0.598-2.202,0l-1.006,1.006
						c-0.743-0.394-1.545-0.729-2.376-0.977v-1.429c0-0.86-0.7-1.56-1.56-1.56h-3.601c-0.86,0-1.56,0.7-1.56,1.56v1.429
						c-0.831,0.248-1.633,0.583-2.376,0.977l-1.006-1.006c-0.598-0.598-1.589-0.598-2.202,0l-2.537,2.551
						c-0.612,0.612-0.612,1.589,0,2.201l1.006,1.006c-0.408,0.744-0.744,1.545-0.991,2.376h-1.414c-0.86,0-1.56,0.7-1.56,1.56v3.601
						c0,0.86,0.7,1.56,1.56,1.56h1.414c0.248,0.831,0.583,1.633,0.991,2.376l-1.006,1.006c-0.612,0.598-0.612,1.589,0,2.201
						l2.537,2.537c0.612,0.612,1.604,0.612,2.202,0l1.006-1.006c0.743,0.408,1.545,0.743,2.376,0.991v1.414
						c0,0.86,0.7,1.56,1.56,1.56h3.601c0.86,0,1.56-0.7,1.56-1.56v-1.414c0.831-0.248,1.633-0.583,2.376-0.991l1.006,1.006
						c0.612,0.612,1.589,0.612,2.202,0l2.551-2.537c0.598-0.612,0.598-1.604,0-2.201l-1.006-1.006
						c0.394-0.744,0.729-1.545,0.977-2.376h1.429c0.86,0,1.56-0.7,1.56-1.56v-3.601
						C366.193,113.777,365.493,113.078,364.633,113.078z M357.387,116.431c0,0.277-0.015,0.554-0.073,0.831
						c-0.131,0.948-0.496,1.808-1.05,2.537c-0.321,0.437-0.714,0.831-1.166,1.166c-0.729,0.539-1.589,0.919-2.537,1.035
						c-0.262,0.058-0.539,0.073-0.816,0.073c-0.277,0-0.554-0.015-0.831-0.073c-0.948-0.131-1.808-0.496-2.537-1.035
						c-0.437-0.335-0.831-0.729-1.166-1.166c-0.54-0.729-0.904-1.589-1.035-2.537c-0.058-0.277-0.073-0.554-0.073-0.831
						s0.015-0.554,0.073-0.816c0.117-0.948,0.496-1.808,1.035-2.537c0.335-0.452,0.729-0.846,1.166-1.166
						c0.729-0.554,1.589-0.919,2.537-1.05c0.277-0.058,0.554-0.073,0.831-0.073c0.277,0,0.554,0.015,0.831,0.073
						c0.933,0.131,1.793,0.496,2.522,1.05c0.452,0.321,0.846,0.714,1.166,1.166c0.554,0.729,0.918,1.589,1.05,2.522
						C357.372,115.877,357.387,116.154,357.387,116.431z"/>
				</g>
				<path style="fill:#FFFFFF;" d="M697.058,375.077H696c-0.184-0.615-0.432-1.209-0.723-1.76l0.745-0.745
					c0.442-0.453,0.442-1.177,0-1.63l-1.889-1.889c-0.453-0.443-1.177-0.443-1.63,0l-0.745,0.745
					c-0.551-0.292-1.144-0.54-1.76-0.723v-1.058c0-0.637-0.518-1.155-1.155-1.155h-2.666c-0.637,0-1.155,0.518-1.155,1.155v1.058
					c-0.615,0.184-1.209,0.432-1.76,0.723l-0.745-0.745c-0.443-0.443-1.177-0.443-1.63,0l-1.878,1.889
					c-0.453,0.453-0.453,1.177,0,1.63l0.745,0.745c-0.302,0.551-0.551,1.144-0.734,1.76h-1.047c-0.637,0-1.155,0.518-1.155,1.155
					v2.666c0,0.637,0.518,1.155,1.155,1.155h1.047c0.183,0.615,0.432,1.209,0.734,1.76l-0.745,0.745
					c-0.453,0.442-0.453,1.177,0,1.63l1.878,1.878c0.453,0.453,1.187,0.453,1.63,0l0.745-0.745c0.551,0.302,1.144,0.551,1.76,0.734
					v1.047c0,0.637,0.518,1.155,1.155,1.155h2.666c0.637,0,1.155-0.518,1.155-1.155v-1.047c0.615-0.184,1.209-0.432,1.76-0.734
					l0.745,0.745c0.453,0.453,1.177,0.453,1.63,0l1.889-1.878c0.442-0.453,0.442-1.188,0-1.63l-0.745-0.745
					c0.291-0.551,0.54-1.144,0.723-1.76h1.058c0.637,0,1.155-0.518,1.155-1.155v-2.666
					C698.213,375.595,697.695,375.077,697.058,375.077z M691.693,377.56c0,0.205-0.011,0.41-0.054,0.615
					c-0.097,0.702-0.367,1.339-0.777,1.878c-0.237,0.324-0.529,0.615-0.864,0.864c-0.54,0.399-1.177,0.68-1.878,0.766
					c-0.194,0.043-0.4,0.054-0.605,0.054c-0.205,0-0.41-0.011-0.615-0.054c-0.702-0.097-1.339-0.367-1.878-0.766
					c-0.324-0.248-0.615-0.54-0.864-0.864c-0.399-0.54-0.669-1.177-0.766-1.878c-0.043-0.205-0.054-0.41-0.054-0.615
					c0-0.205,0.011-0.41,0.054-0.605c0.086-0.702,0.367-1.339,0.766-1.878c0.248-0.335,0.54-0.626,0.864-0.864
					c0.54-0.41,1.177-0.68,1.878-0.777c0.205-0.043,0.41-0.054,0.615-0.054c0.205,0,0.41,0.011,0.615,0.054
					c0.691,0.097,1.328,0.367,1.868,0.777c0.335,0.237,0.626,0.529,0.864,0.864c0.41,0.54,0.68,1.177,0.777,1.867
					C691.682,377.15,691.693,377.355,691.693,377.56z"/>
			</g>
			<g>
				<g>
					<path style="fill:#5C82C6;" d="M621.629,90.587h-13.193c-1.366,0-2.474-1.108-2.474-2.474l0,0c0-1.366,1.108-2.474,2.474-2.474
						h13.193c1.366,0,2.474,1.108,2.474,2.474l0,0C624.103,89.479,622.995,90.587,621.629,90.587z"/>
					<path style="fill:#5C82C6;" d="M631.345,90.587h-2.058c-1.366,0-2.474-1.108-2.474-2.474l0,0c0-1.366,1.108-2.474,2.474-2.474
						h2.058c1.366,0,2.474,1.108,2.474,2.474l0,0C633.819,89.479,632.712,90.587,631.345,90.587z"/>
					<path style="fill:#5C82C6;" d="M631.345,98.802h-14.527c-1.366,0-2.474-1.108-2.474-2.474l0,0c0-1.366,1.108-2.474,2.474-2.474
						h14.527c1.366,0,2.474,1.108,2.474,2.474l0,0C633.819,97.695,632.712,98.802,631.345,98.802z"/>
				</g>
				<g>
					<path style="fill:#5C82C6;" d="M278.329,114.797h-13.193c-1.366,0-2.474-1.108-2.474-2.474l0,0
						c0-1.366,1.108-2.474,2.474-2.474h13.193c1.366,0,2.474,1.108,2.474,2.474l0,0
						C280.803,113.689,279.696,114.797,278.329,114.797z"/>
					<path style="fill:#5C82C6;" d="M288.046,114.797h-2.058c-1.366,0-2.474-1.108-2.474-2.474l0,0c0-1.366,1.108-2.474,2.474-2.474
						h2.058c1.366,0,2.474,1.108,2.474,2.474l0,0C290.52,113.689,289.413,114.797,288.046,114.797z"/>
					<path style="fill:#5C82C6;" d="M288.046,123.012h-14.527c-1.366,0-2.474-1.108-2.474-2.474l0,0
						c0-1.366,1.108-2.474,2.474-2.474h14.527c1.366,0,2.474,1.108,2.474,2.474l0,0C290.52,121.905,289.413,123.012,288.046,123.012
						z"/>
				</g>
				<g>
					<path style="fill:#5C82C6;" d="M154.731,378.339h-13.193c-1.366,0-2.474-1.108-2.474-2.474l0,0
						c0-1.366,1.108-2.474,2.474-2.474h13.193c1.366,0,2.474,1.108,2.474,2.474l0,0
						C157.205,377.232,156.097,378.339,154.731,378.339z"/>
					<path style="fill:#5C82C6;" d="M164.448,378.339h-2.058c-1.366,0-2.474-1.108-2.474-2.474l0,0c0-1.366,1.108-2.474,2.474-2.474
						h2.058c1.366,0,2.474,1.108,2.474,2.474l0,0C166.922,377.232,165.814,378.339,164.448,378.339z"/>
					<path style="fill:#5C82C6;" d="M164.448,386.555h-14.527c-1.366,0-2.474-1.108-2.474-2.474l0,0
						c0-1.366,1.108-2.474,2.474-2.474h14.527c1.366,0,2.474,1.108,2.474,2.474l0,0
						C166.922,385.447,165.814,386.555,164.448,386.555z"/>
				</g>
				<g>
					<path style="fill:#5C82C6;" d="M652.706,331.478h13.193c1.366,0,2.474,1.108,2.474,2.474l0,0c0,1.366-1.108,2.474-2.474,2.474
						h-13.193c-1.366,0-2.474-1.108-2.474-2.474l0,0C650.232,332.586,651.339,331.478,652.706,331.478z"/>
					<path style="fill:#5C82C6;" d="M642.989,331.478h2.058c1.366,0,2.474,1.108,2.474,2.474l0,0c0,1.366-1.108,2.474-2.474,2.474
						h-2.058c-1.366,0-2.474-1.108-2.474-2.474l0,0C640.515,332.586,641.623,331.478,642.989,331.478z"/>
					<path style="fill:#5C82C6;" d="M642.989,323.263h14.527c1.366,0,2.474,1.108,2.474,2.474l0,0c0,1.366-1.108,2.474-2.474,2.474
						h-14.527c-1.366,0-2.474-1.108-2.474-2.474l0,0C640.515,324.37,641.623,323.263,642.989,323.263z"/>
				</g>
				<g>
					<path style="fill:#5C82C6;" d="M106.551,298.659H93.359c-1.366,0-2.474,1.108-2.474,2.474l0,0c0,1.366,1.108,2.474,2.474,2.474
						h13.193c1.366,0,2.474-1.108,2.474-2.474l0,0C109.025,299.767,107.918,298.659,106.551,298.659z"/>
					<path style="fill:#5C82C6;" d="M116.268,298.659h-2.058c-1.366,0-2.474,1.108-2.474,2.474l0,0c0,1.366,1.108,2.474,2.474,2.474
						h2.058c1.366,0,2.474-1.108,2.474-2.474l0,0C118.742,299.767,117.634,298.659,116.268,298.659z"/>
					<path style="fill:#5C82C6;" d="M116.268,290.444h-14.527c-1.366,0-2.474,1.108-2.474,2.474l0,0
						c0,1.366,1.108,2.474,2.474,2.474h14.527c1.366,0,2.474-1.108,2.474-2.474l0,0
						C118.742,291.551,117.634,290.444,116.268,290.444z"/>
				</g>
				<g>
					<path style="fill:#5C82C6;" d="M76.69,160.788h13.193c1.366,0,2.474,1.108,2.474,2.474l0,0c0,1.366-1.108,2.474-2.474,2.474
						H76.69c-1.366,0-2.474-1.108-2.474-2.474l0,0C74.216,161.896,75.324,160.788,76.69,160.788z"/>
					<path style="fill:#5C82C6;" d="M66.973,160.788h2.058c1.366,0,2.474,1.108,2.474,2.474l0,0c0,1.366-1.108,2.474-2.474,2.474
						h-2.058c-1.366,0-2.474-1.108-2.474-2.474l0,0C64.499,161.896,65.607,160.788,66.973,160.788z"/>
					<path style="fill:#5C82C6;" d="M66.973,152.573H81.5c1.366,0,2.474,1.108,2.474,2.474l0,0c0,1.366-1.108,2.474-2.474,2.474
						H66.973c-1.366,0-2.474-1.108-2.474-2.474l0,0C64.499,153.681,65.607,152.573,66.973,152.573z"/>
				</g>
				<g>
					<path style="fill:#5C82C6;" d="M692.413,212.545h13.193c1.366,0,2.474,1.108,2.474,2.474l0,0c0,1.366-1.108,2.474-2.474,2.474
						h-13.193c-1.366,0-2.474-1.108-2.474-2.474l0,0C689.939,213.653,691.046,212.545,692.413,212.545z"/>
					<path style="fill:#5C82C6;" d="M682.696,212.545h2.058c1.366,0,2.474,1.108,2.474,2.474l0,0c0,1.366-1.108,2.474-2.474,2.474
						h-2.058c-1.366,0-2.474-1.108-2.474-2.474l0,0C680.222,213.653,681.33,212.545,682.696,212.545z"/>
					<path style="fill:#5C82C6;" d="M682.696,204.33h14.527c1.366,0,2.474,1.108,2.474,2.474l0,0c0,1.366-1.108,2.474-2.474,2.474
						h-14.527c-1.366,0-2.474-1.108-2.474-2.474l0,0C680.222,205.437,681.33,204.33,682.696,204.33z"/>
				</g>
				<g>
					<path style="fill:#5C82C6;" d="M396.758,59.127h10.935c1.366,0,2.474,1.108,2.474,2.474l0,0c0,1.366-1.108,2.474-2.474,2.474
						h-10.935c-1.366,0-2.474-1.108-2.474-2.474l0,0C394.284,60.235,395.391,59.127,396.758,59.127z"/>
					<path style="fill:#5C82C6;" d="M387.041,59.127h2.058c1.366,0,2.474,1.108,2.474,2.474l0,0c0,1.366-1.108,2.474-2.474,2.474
						h-2.058c-1.366,0-2.474-1.108-2.474-2.474l0,0C384.567,60.235,385.675,59.127,387.041,59.127z"/>
					<path style="fill:#5C82C6;" d="M399.611,72.291h-12.57c-1.366,0-2.474-1.108-2.474-2.474l0,0c0-1.366,1.108-2.474,2.474-2.474
						h12.57c1.366,0,2.474,1.108,2.474,2.474l0,0C402.085,71.183,400.977,72.291,399.611,72.291z"/>
					<path style="fill:#5C82C6;" d="M412.996,72.291h-5.659c-1.366,0-2.474-1.108-2.474-2.474l0,0c0-1.366,1.108-2.474,2.474-2.474
						h5.659c1.366,0,2.474,1.108,2.474,2.474l0,0C415.47,71.183,414.362,72.291,412.996,72.291z"/>
				</g>
			</g>
		</g>
		<g>
			<path style="fill:#FFFFFF;" d="M270.604,277.571L270.604,277.571c-0.888,0.888-2.327,0.888-3.215,0l-9.852-9.852l3.215-3.215
				l9.852,9.852C271.492,275.243,271.492,276.683,270.604,277.571z"/>
			<path style="fill:#D5E2F7;" d="M263.452,269.306l-1.113,1.113c-0.894,0.894-2.344,0.894-3.238,0l-2.462-2.462l4.351-4.351
				l2.462,2.462C264.346,266.962,264.346,268.412,263.452,269.306z"/>
			<path style="fill:#FFFFFF;" d="M260.444,249.669c-4.9-4.9-12.84-4.9-17.74,0c-4.9,4.9-4.9,12.84,0,17.74
				c4.15,4.15,10.48,4.78,15.29,1.91h0.01c0.23-0.14,0.45-0.29,0.68-0.45c0.62-0.42,1.21-0.91,1.76-1.46
				c0.55-0.55,1.04-1.14,1.46-1.76c0.16-0.22,0.31-0.44,0.45-0.68v-0.01C265.224,260.149,264.594,253.819,260.444,249.669z
				 M245.454,264.669c-3.38-3.39-3.38-8.87,0-12.25c3.38-3.38,8.86-3.38,12.24,0s3.38,8.86,0,12.25
				C254.314,268.049,248.834,268.049,245.454,264.669z"/>
			<path style="fill:#819ADB;" d="M257.694,264.669c-3.38,3.38-8.86,3.38-12.24,0c-3.38-3.39-3.38-8.87,0-12.25
				c3.38-3.38,8.86-3.38,12.24,0S261.074,261.279,257.694,264.669z"/>
			<path style="fill:#A4B5F6;" d="M254.785,253.62c0,1.574-1.276,2.85-2.85,2.85c-1.574,0-2.85-1.276-2.85-2.85
				c0-1.574,1.276-2.85,2.85-2.85C253.509,250.77,254.785,252.046,254.785,253.62z"/>
			<path style="fill:#A4B5F6;" d="M257.597,254.705c0,0.599-0.486,1.085-1.085,1.085c-0.599,0-1.085-0.486-1.085-1.085
				c0-0.599,0.486-1.085,1.085-1.085C257.112,253.62,257.597,254.106,257.597,254.705z"/>
		</g>
		<g>
			<g>
				<g>
					
						<line style="fill:none;stroke:#FFFFFF;stroke-width:4;stroke-linecap:round;stroke-linejoin:round;" x1="622.526" y1="286.185" x2="624.526" y2="286.185"/>
					
						<path style="fill:none;stroke:#FFFFFF;stroke-width:4;stroke-linecap:round;stroke-linejoin:round;stroke-dasharray:4.0129,8.0258;" d="
						M632.552,286.185h9.4c24.184,0,43.789,19.605,43.789,43.789v0c0,23.997-19.315,43.524-43.31,43.786L455.824,375.8"/>
					
						<line style="fill:none;stroke:#FFFFFF;stroke-width:4;stroke-linecap:round;stroke-linejoin:round;" x1="451.812" y1="375.844" x2="449.812" y2="375.865"/>
				</g>
			</g>
			
				<path style="fill:none;stroke:#FFFFFF;stroke-width:4;stroke-linecap:round;stroke-linejoin:round;stroke-miterlimit:10;stroke-dasharray:4,8;" d="
				M137.796,189.999l-7.687-0.19c-22.793-0.329-41.446,18.057-41.446,40.852v0c0,22.564,18.292,40.856,40.856,40.856h114.41"/>
		</g>
	</g>
</g>
<g id="DESIGNED_BY_FREEPIK">
	<g>
		<g>
			<g id="XMLID_253_">
				<g id="XMLID_272_">
					<path id="XMLID_280_" style="fill:#252A30;" d="M385.104,465.465c-0.433,0.443-0.804,0.932-1.108,1.453l-0.465-0.241
						c-0.067-0.297-0.35-0.502-0.659-0.466c-0.331,0.039-0.567,0.339-0.529,0.67c0.039,0.331,0.339,0.567,0.67,0.528
						c0.066-0.007,0.127-0.025,0.184-0.052l0.451,0.234c-0.251,0.554-0.433,1.139-0.539,1.743l0.747,0.132
						c0.229-1.306,0.849-2.507,1.792-3.473L385.104,465.465z"/>
					<path id="XMLID_279_" style="fill:#252A30;" d="M390.591,463.164c-0.171,0-0.341,0.006-0.509,0.017l-0.074-0.626
						c0.188-0.149,0.296-0.389,0.266-0.645c-0.046-0.393-0.402-0.674-0.795-0.628c-0.394,0.046-0.675,0.402-0.628,0.796
						c0.03,0.254,0.189,0.461,0.404,0.563l0.073,0.624c-0.714,0.116-1.402,0.332-2.06,0.646l0.327,0.685
						c0.935-0.447,1.941-0.674,2.995-0.674c0.497,0,0.993,0.053,1.476,0.158l0.16-0.741
						C391.692,463.222,391.142,463.164,390.591,463.164z"/>
					<path id="XMLID_278_" style="fill:#252A30;" d="M397.194,465.711c0.331-0.04,0.566-0.341,0.525-0.672
						c-0.04-0.331-0.341-0.566-0.672-0.525c-0.31,0.038-0.535,0.304-0.53,0.608l-0.416,0.363c-0.418-0.43-0.89-0.813-1.407-1.14
						l-0.404,0.642c1.135,0.715,2.021,1.727,2.564,2.925l0.69-0.313c-0.251-0.554-0.567-1.071-0.942-1.545l0.402-0.351
						C397.065,465.715,397.128,465.719,397.194,465.711z"/>
					<path id="XMLID_277_" style="fill:#252A30;" d="M390.044,473.372c-0.386,0.023-0.775,0.035-1.157,0.035
						c-0.88,0-1.733-0.061-2.478-0.18c-0.391-0.062-0.846-0.154-1.271-0.292c1.047,1.861,3.069,3.125,5.389,3.125
						c2.855,0,5.263-1.916,5.949-4.503c-0.682,0.449-1.505,0.825-2.458,1.122C392.838,473.047,391.463,473.287,390.044,473.372z"/>
					<path id="XMLID_273_" style="fill:#252A30;" d="M390.591,464.68c-3.352,0-6.079,2.666-6.079,5.943
						c0,0.425,0.046,0.849,0.137,1.261c0.674,0.483,2.706,0.891,5.348,0.731c2.88-0.174,5.297-0.958,6.672-2.159
						c-0.005-0.194-0.02-0.39-0.045-0.581C396.244,466.914,393.65,464.68,390.591,464.68z M388.432,471.195
						c-1.02,0-1.85-0.83-1.85-1.85c0-1.021,0.83-1.851,1.85-1.851c1.02,0,1.85,0.83,1.85,1.851
						C390.282,470.365,389.452,471.195,388.432,471.195z M393.169,470.287c-0.75,0-1.36-0.61-1.36-1.36s0.61-1.36,1.36-1.36
						s1.36,0.61,1.36,1.36S393.919,470.287,393.169,470.287z"/>
				</g>
				<path id="XMLID_270_" style="fill:#252A30;" d="M406.595,466.547c-0.295-0.116-0.806-0.31-1.383-0.238
					c-0.551,0.069-0.844,0.341-0.844,1.007v0.866h2.229v1.717h-2.229v5.455h-1.932v-5.455h-1.339v-1.717h1.339v-0.889
					c0-1.68,0.895-2.782,2.568-2.782c0.643,0,1.157,0.121,1.59,0.308V466.547z"/>
				<path id="XMLID_268_" style="fill:#252A30;" d="M411.297,469.878c-0.177-0.029-0.357-0.046-0.525-0.046
					c-0.896,0-1.51,0.548-1.51,1.613v3.908h-1.933v-7.172h1.873v0.784c0.451-0.673,1.14-0.977,2.02-0.977
					c0.414,0,0.848,0.128,1.095,0.337L411.297,469.878z"/>
				<path id="XMLID_265_" style="fill:#252A30;" d="M418.965,471.757c0,0.222-0.016,0.488-0.037,0.651h-5.085
					c0.207,1.036,0.933,1.487,1.843,1.487c0.622,0,1.295-0.252,1.813-0.689l1.133,1.243c-0.814,0.748-1.851,1.089-3.057,1.089
					c-2.198,0-3.724-1.496-3.724-3.753c0-2.258,1.48-3.797,3.627-3.797C417.543,467.99,418.958,469.522,418.965,471.757z
					 M413.851,471.091h3.175c-0.178-0.918-0.732-1.437-1.561-1.437C414.554,469.655,414.021,470.203,413.851,471.091z"/>
				<path id="XMLID_262_" style="fill:#252A30;" d="M426.619,471.757c0,0.222-0.016,0.488-0.037,0.651h-5.085
					c0.207,1.036,0.933,1.487,1.843,1.487c0.622,0,1.296-0.252,1.814-0.689l1.133,1.243c-0.814,0.748-1.851,1.089-3.058,1.089
					c-2.198,0-3.723-1.496-3.723-3.753c0-2.258,1.48-3.797,3.627-3.797C425.197,467.99,426.611,469.522,426.619,471.757z
					 M421.504,471.091h3.175c-0.178-0.918-0.733-1.437-1.562-1.437C422.208,469.655,421.674,470.203,421.504,471.091z"/>
				<path id="XMLID_259_" style="fill:#252A30;" d="M434.964,471.764c0,2.154-1.495,3.775-3.472,3.775
					c-0.962,0-1.643-0.378-2.109-0.933v3.708h-1.925v-10.133h1.888v0.792c0.467-0.585,1.154-0.984,2.139-0.984
					C433.469,467.99,434.964,469.611,434.964,471.764z M429.287,471.764c0,1.133,0.748,1.977,1.844,1.977
					c1.14,0,1.85-0.881,1.85-1.977c0-1.095-0.71-1.976-1.85-1.976C430.035,469.789,429.287,470.632,429.287,471.764z"/>
				<path id="XMLID_256_" style="fill:#252A30;" d="M438.068,465.836c0,0.696-0.541,1.229-1.236,1.229
					c-0.696,0-1.229-0.533-1.229-1.229c0-0.695,0.532-1.243,1.229-1.243C437.527,464.592,438.068,465.14,438.068,465.836z
					 M437.808,475.354h-1.932v-7.172h1.932V475.354z"/>
				<path id="XMLID_254_" style="fill:#252A30;" d="M441.032,470.736l2.702-2.554h2.368l-3.478,3.375l3.501,3.797h-2.376
					l-2.717-2.901v2.901H439.1v-10.658h1.932V470.736z"/>
			</g>
			<g>
				<path style="fill:#252A30;" d="M309.412,475.29v-1.055c-0.527,0.718-1.391,1.23-2.387,1.23c-1.846,0-3.149-1.406-3.149-3.706
					c0-2.256,1.289-3.721,3.149-3.721c0.952,0,1.816,0.469,2.387,1.245v-3.765h1.099v9.771H309.412z M309.412,473.371v-3.208
					c-0.395-0.615-1.245-1.143-2.124-1.143c-1.42,0-2.27,1.172-2.27,2.739c0,1.567,0.85,2.725,2.27,2.725
					C308.167,474.484,309.017,473.986,309.412,473.371z"/>
				<path style="fill:#252A30;" d="M311.932,471.745c0-2.051,1.465-3.706,3.486-3.706c2.139,0,3.398,1.67,3.398,3.794v0.278h-5.727
					c0.088,1.333,1.025,2.446,2.549,2.446c0.806,0,1.626-0.322,2.182-0.894l0.527,0.718c-0.703,0.703-1.655,1.084-2.812,1.084
					C313.44,475.465,311.932,473.957,311.932,471.745z M315.403,468.947c-1.509,0-2.256,1.274-2.314,2.358h4.644
					C317.718,470.25,317.015,468.947,315.403,468.947z"/>
				<path style="fill:#252A30;" d="M319.607,474.352l0.571-0.791c0.469,0.542,1.362,1.011,2.329,1.011
					c1.084,0,1.67-0.513,1.67-1.216c0-1.714-4.38-0.659-4.38-3.281c0-1.099,0.952-2.036,2.636-2.036
					c1.202,0,2.051,0.454,2.623,1.025l-0.513,0.762c-0.424-0.513-1.201-0.894-2.109-0.894c-0.966,0-1.567,0.483-1.567,1.113
					c0,1.553,4.379,0.527,4.379,3.281c0,1.187-0.952,2.139-2.783,2.139C321.306,475.465,320.325,475.114,319.607,474.352z"/>
				<path style="fill:#252A30;" d="M326.477,466.471c0-0.41,0.337-0.747,0.732-0.747c0.41,0,0.747,0.337,0.747,0.747
					c0,0.41-0.337,0.732-0.747,0.732C326.814,467.204,326.477,466.881,326.477,466.471z M326.667,475.29v-7.075h1.099v7.075H326.667
					z"/>
				<path style="fill:#252A30;" d="M329.582,477.106l0.556-0.82c0.586,0.703,1.289,0.967,2.3,0.967c1.172,0,2.27-0.571,2.27-2.124
					v-1.011c-0.513,0.718-1.377,1.26-2.373,1.26c-1.846,0-3.149-1.377-3.149-3.662c0-2.271,1.289-3.677,3.149-3.677
					c0.952,0,1.802,0.469,2.373,1.245v-1.069h1.099v6.87c0,2.344-1.641,3.076-3.369,3.076
					C331.237,478.161,330.417,477.925,329.582,477.106z M334.708,473.253v-3.091c-0.381-0.615-1.23-1.143-2.109-1.143
					c-1.421,0-2.27,1.128-2.27,2.695c0,1.553,0.849,2.695,2.27,2.695C333.478,474.411,334.328,473.869,334.708,473.253z"/>
				<path style="fill:#252A30;" d="M342.413,475.29v-4.629c0-1.245-0.63-1.641-1.582-1.641c-0.864,0-1.685,0.527-2.094,1.099v5.171
					h-1.099v-7.075h1.099v1.025c0.498-0.586,1.464-1.201,2.519-1.201c1.479,0,2.256,0.747,2.256,2.285v4.966H342.413z"/>
				<path style="fill:#252A30;" d="M344.932,471.745c0-2.051,1.465-3.706,3.486-3.706c2.139,0,3.398,1.67,3.398,3.794v0.278h-5.727
					c0.088,1.333,1.025,2.446,2.548,2.446c0.806,0,1.626-0.322,2.183-0.894l0.527,0.718c-0.703,0.703-1.655,1.084-2.813,1.084
					C346.441,475.465,344.932,473.957,344.932,471.745z M348.404,468.947c-1.509,0-2.256,1.274-2.314,2.358h4.643
					C350.718,470.25,350.015,468.947,348.404,468.947z"/>
				<path style="fill:#252A30;" d="M358.35,475.29v-1.055c-0.527,0.718-1.392,1.23-2.388,1.23c-1.845,0-3.149-1.406-3.149-3.706
					c0-2.256,1.289-3.721,3.149-3.721c0.952,0,1.817,0.469,2.388,1.245v-3.765h1.098v9.771H358.35z M358.35,473.371v-3.208
					c-0.396-0.615-1.245-1.143-2.124-1.143c-1.421,0-2.271,1.172-2.271,2.739c0,1.567,0.85,2.725,2.271,2.725
					C357.105,474.484,357.954,473.986,358.35,473.371z"/>
				<path style="fill:#252A30;" d="M364.692,475.29v-9.771h1.099v3.765c0.571-0.776,1.421-1.245,2.388-1.245
					c1.845,0,3.149,1.465,3.149,3.721c0,2.3-1.304,3.706-3.149,3.706c-0.996,0-1.86-0.513-2.388-1.23v1.055H364.692z M367.9,474.484
					c1.436,0,2.285-1.157,2.285-2.725c0-1.567-0.85-2.739-2.285-2.739c-0.864,0-1.729,0.527-2.109,1.143v3.208
					C366.171,473.986,367.036,474.484,367.9,474.484z"/>
				<path style="fill:#252A30;" d="M372.528,477.062c0.161,0.073,0.425,0.117,0.6,0.117c0.483,0,0.806-0.161,1.055-0.747
					l0.469-1.069l-2.959-7.148h1.186l2.358,5.801l2.344-5.801h1.2l-3.544,8.511c-0.425,1.024-1.143,1.421-2.08,1.436
					c-0.234,0-0.601-0.044-0.806-0.104L372.528,477.062z"/>
			</g>
		</g>
	</g>
</g>
</svg>
